<svg xmlns="http://www.w3.org/2000/svg" xml:space="preserve" style="fill-rule:evenodd;clip-rule:evenodd;stroke-linejoin:round;stroke-miterlimit:2" viewBox="0 0 267 267"><path d="M172.891 53.879h20.367l55.549 154.742h-20.802l-15.768-46.484h-58.074l-15.786 46.484h-21.002m65.482-131.393-23.344 68.922h47.323l-23.411-68.922h-.568Z" style="fill:#0d6efd;fill-rule:nonzero"/><path d="M37.364 191.262h-.585v14.859H17.917v-82.189c0-25.041 18.628-38.888 44.245-38.888 29.029 0 43.309 15.19 44.58 36.053H88.214c-1.137-11.908-9.949-19.735-25.366-19.735-16.237 0-25.384 8.623-25.384 24.279v12.122h31.671c27.541.116 42.172 13.267 42.172 34.13 0 21.874-16.003 36.152-39.212 36.152-17.725 0-28.695-7.131-34.748-16.766l.017-.017Zm29.48.581c12.575 0 24.347-6.584 24.347-20.63 0-10.78-7.09-18.491-23.544-18.491H37.464v13.831c0 14.859 12.575 25.29 29.38 25.29Z" style="fill:#dc3545;fill-rule:nonzero"/></svg>